:SAMPLES-PER-SECOND 30
:FULLY-SPECIFIED
:DEGREES
204
root  -3.88255 39.8766 3.26757 -174.613 -7.80135 176.807
RightUpLeg  -15.9453 1.12646 -3.87073
RightLeg  13.1791 17.1255 0.873578
RightFoot  -0.950615 0.0526785 -0.650573
RightToes  -6.40286e-010 0 -3.6325e-017
Spine  19.7876 2.77944 21.1645
Spine1  2.0758 9.60666 -16.686
HEad  -27.1533 -26.617 2.26526
LeftShoulder1  0.335912 2.5952 -30.8666
LeftArm  12.1018 6.87823 -42.8921
LeftForeArm  25.0226 -30.4171 -5.24021
LeftHand  -0.0393357 4.67703 2.69057
RightShoulder  0.395974 -2.11485 22.7146
RightArm  -22.8909 46.819 32.0424
RightForeArm  6.60661 35.2053 7.53819
RightHand  -0.59101 7.86768 -5.53887
LeftUpLeg  -12.093 3.12316 1.60201
LeftLeg  7.55729 -1.74669 0.744505
LeftFoot  1.17232 0.0578357 -0.592607
LeftToes  1.32783e-010 1.73515e-011 1.59258e-011
205
root  -3.76207 39.823 3.25702 -174.85 -8.4494 177.008
RightUpLeg  -15.9218 1.30239 -3.66944
RightLeg  13.8048 16.2024 1.15065
RightFoot  -1.43036 0.0644925 -0.855748
RightToes  -6.40286e-010 0 -3.6325e-017
Spine  19.8466 2.64772 21.5393
Spine1  2.1592 9.49073 -16.4152
HEad  -26.424 -24.9622 0.139456
LeftShoulder1  0.345497 2.56956 -30.8797
LeftArm  10.8632 7.49702 -43.0361
LeftForeArm  24.8639 -30.4554 -5.25913
LeftHand  -0.0286901 5.2671 2.60178
RightShoulder  0.343503 -2.31181 23.1323
RightArm  -24.9001 46.1107 31.1611
RightForeArm  8.03084 37.227 8.04672
RightHand  -0.567745 8.47677 -5.12517
LeftUpLeg  -12.4667 3.01954 2.02172
LeftLeg  8.60435 -2.29475 0.587214
LeftFoot  0.59651 0.0648588 -0.648678
LeftToes  1.32783e-010 1.73515e-011 1.59258e-011
206
root  -3.65326 39.768 3.24381 -175.091 -9.4608 177.184
RightUpLeg  -15.881 1.13216 -3.52854
RightLeg  14.5342 15.2644 1.49592
RightFoot  -1.91552 0.0735849 -1.04948
RightToes  -6.40286e-010 0 -3.6325e-017
Spine  19.6279 2.3259 21.7043
Spine1  2.45306 9.06285 -15.8809
HEad  -25.8609 -22.0501 -1.97683
LeftShoulder1  0.298347 2.69808 -30.9232
LeftArm  9.34821 8.48356 -42.8483
LeftForeArm  25.0183 -31.1155 -5.40762
LeftHand  -0.0337424 4.94032 2.38308
RightShoulder  0.290488 -2.49049 23.0968
RightArm  -27.9 45.6969 30.9089
RightForeArm  10.0743 40.5372 8.93618
RightHand  -0.537472 7.41735 -5.19915
LeftUpLeg  -12.9383 2.19391 2.35983
LeftLeg  9.7249 -2.49473 0.642897
LeftFoot  0.117403 0.0796536 -0.767554
LeftToes  1.32783e-010 1.73515e-011 1.59258e-011
207
root  -3.54864 39.7153 3.20287 -175.291 -10.5654 177.237
RightUpLeg  -15.8292 0.837522 -3.51248
RightLeg  15.295 14.3542 1.82548
RightFoot  -2.51352 0.0724429 -1.1593
RightToes  -6.40286e-010 0 -3.6325e-017
Spine  19.1731 2.16013 21.8653
Spine1  2.75381 8.76429 -15.4513
HEad  -23.8872 -18.3749 -4.71436
LeftShoulder1  0.309239 2.66965 -30.9707
LeftArm  8.75364 9.33338 -42.662
LeftForeArm  24.6524 -31.6241 -5.55045
LeftHand  -0.0336177 4.90109 2.30239
RightShoulder  0.255792 -2.60397 22.9504
RightArm  -30.5332 45.3007 30.2838
RightForeArm  12.6327 42.5494 9.44086
RightHand  -0.349825 5.88026 -3.93437
LeftUpLeg  -13.33 1.29369 2.62507
LeftLeg  10.6817 -2.72475 0.55715
LeftFoot  -0.314867 0.0872478 -0.884609
LeftToes  1.32783e-010 1.73515e-011 1.59258e-011
208
root  -3.4652 39.6769 3.18276 -175.659 -12.0673 177.219
RightUpLeg  -15.4643 -0.473979 -3.49004
RightLeg  15.9223 14.0145 2.12706
RightFoot  -3.04815 0.0772683 -1.35132
RightToes  -6.40286e-010 0 -3.6325e-017
Spine  18.8557 1.98075 22.1601
Spine1  2.76371 8.46222 -15.1374
HEad  -21.3147 -14.5806 -7.38743
LeftShoulder1  0.316978 2.64651 -30.8729
LeftArm  8.86822 9.58192 -42.8954
LeftForeArm  25.3747 -31.4072 -5.45746
LeftHand  -0.0261043 5.41753 2.62592
RightShoulder  0.265593 -2.56017 22.5884
RightArm  -31.5784 44.2458 29.2827
RightForeArm  13.5469 42.7435 9.45075
RightHand  -0.30848 5.21729 -3.68528
LeftUpLeg  -13.5597 0.387534 2.76958
LeftLeg  11.4903 -3.15192 0.284273
LeftFoot  -0.454448 0.0567788 -0.568378
LeftToes  1.32783e-010 1.73515e-011 1.59258e-011
209
root  -3.39312 39.6685 3.12905 -176.344 -14.03 177.095
RightUpLeg  -14.4787 -2.26706 -3.63901
RightLeg  16.3108 13.7414 2.45064
RightFoot  -3.54657 0.0833093 -1.5745
RightToes  -6.40286e-010 0 -3.6325e-017
Spine  18.506 1.84827 22.5638
Spine1  3.16005 8.35937 -15.0953
HEad  -18.8856 -10.0026 -9.6246
LeftShoulder1  0.265798 2.78486 -30.8632
LeftArm  10.2424 8.80884 -42.7944
LeftForeArm  25.4243 -31.1512 -5.39308
LeftHand  -0.030551 5.14964 2.4325
RightShoulder  0.176094 -2.87361 22.8054
RightArm  -30.415 42.9418 27.5363
RightForeArm  13.8079 41.6488 9.05926
RightHand  -0.370038 5.28577 -4.32149
LeftUpLeg  -13.1769 -0.787691 2.6821
LeftLeg  11.7875 -3.51943 0.175781
LeftFoot  -0.366681 0.069883 -0.699202
LeftToes  1.32783e-010 1.73515e-011 1.59258e-011
210
root  -3.33032 39.6914 3.05331 -176.166 -16.6119 176.818
RightUpLeg  -14.0724 -4.18274 -3.98578
RightLeg  16.3369 12.9538 2.52257
RightFoot  -3.88175 0.0875803 -1.74693
RightToes  -6.40286e-010 0 -3.6325e-017
Spine  17.382 1.96749 22.8953
Spine1  3.32477 8.30481 -15.166
HEad  -16.6368 -6.0333 -11.5527
LeftShoulder1  0.259316 2.79739 -30.5996
LeftArm  10.0327 8.92124 -43.3711
LeftForeArm  26.5051 -31.4032 -5.3926
LeftHand  -0.0279741 5.31852 2.53049
RightShoulder  0.118302 -3.0752 23.0437
RightArm  -28.3753 40.0889 25.7578
RightForeArm  14.3366 41.0168 8.81327
RightHand  -0.484459 5.89327 -5.30476
LeftUpLeg  -13.6921 -2.00922 2.40022
LeftLeg  11.9536 -3.92622 0.0599242
LeftFoot  0.0959848 0.151784 -1.51738
LeftToes  1.32783e-010 1.73515e-011 1.59258e-011
211
root  -3.27076 39.7145 2.96539 -176.594 -20.0982 176.339
RightUpLeg  -12.7649 -6.34981 -4.6913
RightLeg  16.4933 11.6641 2.56862
RightFoot  -4.43939 0.0834758 -1.88295
RightToes  -6.40286e-010 0 -3.6325e-017
Spine  16.7271 1.84598 22.5424
Spine1  3.45928 7.85694 -14.451
HEad  -14.913 -1.22149 -13.7899
LeftShoulder1  0.197756 2.96598 -30.6578
LeftArm  9.69774 9.11773 -43.6065
LeftForeArm  26.7711 -31.9211 -5.50314
LeftHand  -0.0385732 4.71498 2.52219
RightShoulder  0.0969743 -3.14983 23.2586
RightArm  -26.9569 35.7677 24.9302
RightForeArm  17.0535 42.0948 8.99256
RightHand  -0.531108 6.29465 -5.60345
LeftUpLeg  -13.5062 -2.44377 1.84604
LeftLeg  12.2526 -4.63367 -0.302466
LeftFoot  -0.329663 0.259175 -2.70327
LeftToes  1.32783e-010 1.73515e-011 1.59258e-011
212
root  -3.21619 39.7321 2.84944 -176.677 -24.3565 175.888
RightUpLeg  -11.5234 -8.4801 -5.38851
RightLeg  16.517 9.59767 2.36952
RightFoot  -5.10942 0.0673328 -1.87053
RightToes  -6.40286e-010 0 -3.6325e-017
Spine  15.7921 1.73859 22.1852
Spine1  3.50758 7.35956 -13.7578
HEad  -13.111 2.51242 -14.6426
LeftShoulder1  0.0518274 3.36333 -30.7709
LeftArm  8.76994 9.66212 -43.5608
LeftForeArm  27.4697 -33.5184 -5.85944
LeftHand  -0.0299552 5.06228 1.61622
RightShoulder  0.0354138 -3.35936 23.7034
RightArm  -25.8577 30.0244 24.4501
RightForeArm  22.8707 44.7667 9.52672
RightHand  -0.51792 5.76055 -5.70948
LeftUpLeg  -13.7261 -2.03101 1.36469
LeftLeg  13.0063 -4.91528 -0.730742
LeftFoot  -1.90112 0.38855 -4.55002
LeftToes  1.32783e-010 1.73515e-011 1.59258e-011
213
root  -3.16154 39.7813 2.70598 -176.729 -28.9201 175.456
RightUpLeg  -9.87332 -10.269 -6.12706
RightLeg  16.0335 6.98604 2.06834
RightFoot  -5.63747 0.0436363 -1.64299
RightToes  -6.40286e-010 0 -3.6325e-017
Spine  14.9266 1.90352 21.6281
Spine1  3.67643 7.15209 -12.883
HEad  -11.4986 5.3784 -15.4436
LeftShoulder1  -0.0396737 3.61026 -31.1115
LeftArm  8.74205 10.2698 -43.2288
LeftForeArm  28.1244 -35.6038 -6.35652
LeftHand  -0.0337164 4.67263 1.45764
RightShoulder  -0.0970025 -3.79329 24.3187
RightArm  -24.4754 22.9694 24.0783
RightForeArm  27.4826 47.8281 10.3491
RightHand  -0.533875 5.36111 -6.06647
LeftUpLeg  -14.0335 -0.138651 0.823609
LeftLeg  14.287 -4.14851 -0.835039
LeftFoot  -3.1381 0.368138 -4.86417
LeftToes  1.32783e-010 1.73515e-011 1.59258e-011
214
root  -3.139 39.8022 2.55625 -176.617 -34.4178 174.948
RightUpLeg  -8.1251 -12.0984 -7.05396
RightLeg  15.7609 3.53267 1.85441
RightFoot  -6.38767 0.0180933 -1.4159
RightToes  -6.40286e-010 0 -3.6325e-017
Spine  13.9354 1.89707 20.6338
Spine1  3.5176 6.53884 -11.5174
HEad  -10.1 7.83813 -15.4387
LeftShoulder1  -0.171607 3.95845 -31.5981
LeftArm  8.42983 10.8488 -42.7506
LeftForeArm  28.5843 -37.2929 -6.7876
LeftHand  -0.0388229 4.50811 2.17757
RightShoulder  -0.2399 -4.23447 25.4089
RightArm  -22.895 15.7158 24.3188
RightForeArm  29.21 50.0035 11.1306
RightHand  -0.552811 5.60492 -6.14793
LeftUpLeg  -14.6598 1.62814 0.363522
LeftLeg  15.8608 -2.43595 -0.468647
LeftFoot  -3.77617 0.322427 -4.52502
LeftToes  1.32783e-010 1.73515e-011 1.59258e-011
